<?xml version="1.0" encoding="utf-8"?>
<!-- Generator: Adobe Illustrator 23.0.6, SVG Export Plug-In . SVG Version: 6.00 Build 0)  -->
<svg version="1.1" id="Layer_1" xmlns="http://www.w3.org/2000/svg" xmlns:xlink="http://www.w3.org/1999/xlink" x="0px" y="0px"
	 viewBox="0 0 28.4 28.4" style="enable-background:new 0 0 28.4 28.4;" xml:space="preserve">
<style type="text/css">
	.st0{fill:#54698C;}
	.st1{fill:#FFFFFF;}
</style>
<g>
	<path class="st0" d="M24.1,4.3c-2.7-2.7-6.2-4.2-10-4.2c-3.8,0-7.3,1.5-10,4.2s-4.2,6.2-4.2,10s1.5,7.3,4.2,10
		c2.7,2.7,6.2,4.1,10,4.1c3.8,0,7.3-1.5,10-4.1c2.7-2.7,4.2-6.2,4.2-10C28.2,10.5,26.8,6.9,24.1,4.3z"/>
</g>
<path class="st1" d="M18,19.6l-1.4-1.1c-0.5-0.4-1.1-0.4-1.6,0l-1.3,1c-0.2,0.1-0.4,0.1-0.6,0l-2.2-2l-2-2.2c-0.2-0.2-0.2-0.4,0-0.6
	l1-1.3c0.4-0.5,0.3-1.2,0-1.6l-1.1-1.4c-0.5-0.6-1.4-0.7-2-0.1l-1.2,1.2C5.2,11.6,5,12,5,12.4c0.2,2.9,1.5,5.6,3.4,7.5
	s4.6,3.2,7.5,3.4c0.4,0,0.7-0.1,1-0.4l1.2-1.2C18.7,21,18.6,20.1,18,19.6z"/>
<g>
	<path class="st1" d="M17.1,14.2c-0.4,0-0.9,0.3-0.9,0.8v0.4c0,0.5,0.4,0.8,0.9,0.8c0.4,0,0.9-0.3,0.9-0.8V15
		C18,14.4,17.5,14.2,17.1,14.2z"/>
	<path class="st1" d="M17.2,5.4L17.2,5.4c-1.5,0-2.7,1-2.7,2.5V8c0,0.6,0.4,0.9,0.9,0.9s0.9-0.3,0.9-0.9v0c0-0.5,0.4-0.8,0.9-0.8
		h0.1c0.5,0,0.9,0.4,0.9,0.8v0.5c0,0.2,0,0.4-0.3,0.6c-0.9,0.8-1.6,1.2-1.6,2.7v0.6c0,0.6,0.4,0.9,0.9,0.9c0.4,0,0.9-0.3,0.9-0.9
		v-0.6c0-0.7,0.4-1,1-1.4c0.4-0.4,0.9-0.9,0.9-1.8V7.9C19.8,6.4,18.6,5.4,17.2,5.4z"/>
</g>
</svg>
