<?xml version="1.0" encoding="utf-8"?>
<!-- Generator: Adobe Illustrator 24.1.0, SVG Export Plug-In . SVG Version: 6.00 Build 0)  -->
<svg version="1.1" id="Layer_1" xmlns="http://www.w3.org/2000/svg" xmlns:xlink="http://www.w3.org/1999/xlink" x="0px" y="0px"
	 viewBox="0 0 28.4 28.4" style="enable-background:new 0 0 28.4 28.4;" xml:space="preserve">
<style type="text/css">
	.st0{fill:#62B946;}
	.st1{fill:#FFFFFF;}
</style>
<g>
	<path class="st0" d="M24.2,4.2C21.5,1.5,18,0,14.2,0s-7.3,1.5-10,4.2S0,10.4,0,14.2s1.5,7.3,4.2,10s6.2,4.1,10,4.1s7.3-1.5,10-4.1
		c2.7-2.7,4.2-6.2,4.2-10C28.3,10.4,26.9,6.8,24.2,4.2z"/>
	<g>
		<path class="st1" d="M8.9,11h1.3c0.2,0,0.3-0.1,0.3-0.3l0,0c0-1.9,1.6-3.5,3.6-3.3c1.8,0.1,3.1,1.7,3.1,3.5v-0.1
			c0,0.2,0.1,0.3,0.3,0.3h1.3c0.2,0,0.3-0.1,0.3-0.3l0,0c0-3-2.5-5.4-5.6-5.3c-2.8,0.1-5,2.5-5.1,5.3C8.6,10.8,8.8,11,8.9,11z
			 M8.6,10.7v0.1V10.7z M20.5,13.6c0-0.7-0.6-1.3-1.3-1.3H8.6c-0.7,0-1.3,0.6-1.3,1.3V20c0,0.7,0.6,1.3,1.3,1.3h10.6
			c0.7,0,1.3-0.6,1.3-1.3V13.6z M15.4,18.9c0.1,0.2-0.1,0.4-0.3,0.4h-2.4c-0.2,0-0.4-0.2-0.3-0.4l0.6-2c-0.5-0.3-0.8-0.9-0.7-1.6
			c0.1-0.6,0.6-1.1,1.3-1.3c1.1-0.2,2,0.6,2,1.6c0,0.5-0.3,1-0.7,1.3C14.8,16.9,15.4,18.9,15.4,18.9z"/>
	</g>
</g>
</svg>
